<?xml version="1.0" standalone="no"?>
<!DOCTYPE svg PUBLIC "-//W3C//DTD SVG 1.1//EN" "http://www.w3.org/Graphics/SVG/1.1/DTD/svg11.dtd" >
<svg>
<metadata>
Created by FontForge 20090622 at Mon Apr  6 15:59:37 2020
 By deploy user
</metadata>
<defs>
<font id="YungJakesNewHandwriting-Rg" horiz-adv-x="250" >
  <font-face 
    font-family="Yung Jakes New Handwriting"
    font-weight="400"
    font-stretch="normal"
    units-per-em="1000"
    panose-1="2 0 5 3 0 0 0 0 0 0"
    ascent="800"
    descent="-200"
    x-height="351"
    cap-height="777"
    bbox="21 -200 730 800"
    underline-thickness="50"
    underline-position="-100"
    unicode-range="U+000D-U+00A0"
  />
<missing-glyph horiz-adv-x="364" 
d="M33 0v666h265v-666h-265zM66 33h199v600h-199v-600z" />
    <glyph glyph-name=".notdef" horiz-adv-x="364" 
d="M33 0v666h265v-666h-265zM66 33h199v600h-199v-600z" />
    <glyph glyph-name=".null" 
 />
    <glyph glyph-name=".null" 
 />
    <glyph glyph-name="nonmarkingreturn" horiz-adv-x="333" 
 />
    <glyph glyph-name="CR" unicode="&#xd;" 
 />
    <glyph glyph-name="space" unicode=" " 
 />
    <glyph glyph-name="exclam" unicode="!" horiz-adv-x="180" 
d="M67 96q5 7 17 7q9 0 30.5 -14.5t25.5 -23.5q2 -6 2 -10q0 -21 -23 -31q-11 -4 -17 -4q-7 0 -18 4q-18 7 -23 19q-4 8 -4 18q0 23 10 35zM38 624q5 4 11 4q12 0 28 -18q64 -68 73 -288q2 -56 2 -63q0 -29 -7 -49q-9 -26 -17 -30q-7 -3 -21 11t-18 48q-3 23 -8 53
q-2 9 -7 66q-9 121 -22 148q-5 8 -16 45q-8 27 -8 45q0 22 10 28z" />
    <glyph glyph-name="quotedbl" unicode="&#x22;" horiz-adv-x="282" 
d="M168 563q9 9 21 9q21 0 40 -25t23 -60q6 -54 6 -69t-6 -27q-12 -23 -28 -23q-9 0 -20 8q-14 10 -21 25q-18 38 -24 117q-1 8 -1 20q0 15 10 25zM35 640q4 1 11 1q23 0 43.5 -22t29.5 -59q4 -15 4 -55q0 -80 -10 -98q-9 -19 -25 -19q-9 0 -18 6q-21 12 -28.5 36t-11.5 87
q-1 15 -1.5 36.5t-1.5 33t-1 14.5q-1 6 -1 16q0 20 10 23z" />
    <glyph glyph-name="quotesingle" unicode="'" horiz-adv-x="150" 
d="M55 594q13 2 15 3h1q5 0 13 -9.5t13 -21.5q6 -14 6 -59q0 -34 6.5 -75t11.5 -41q4 0 4 -15q0 -13 -10 -21t-24 -8q-19 0 -36 14q-13 11 -22.5 53.5t-9.5 86.5q0 18 4 44q9 45 28 49z" />
    <glyph glyph-name="comma" unicode="," horiz-adv-x="149" 
d="M61 194q8 2 13 2q32 0 45 -26q6 -10 6 -42q0 -75 -18 -116q-14 -34 -25 -47.5t-24 -13.5h-5q-28 5 -28 44q0 12 5 29q17 54 19 123q1 28 3 36t9 11z" />
    <glyph glyph-name="period" unicode="." horiz-adv-x="137" 
d="M32 174q10 10 23 10q20 0 45 -22q13 -13 13 -25q0 -1 -0.5 -4.5t-0.5 -5.5q-1 -21 -15 -28q-7 -4 -16 -4q-29 0 -47 28q-11 17 -11 30q0 12 9 21z" />
    <glyph glyph-name="colon" unicode=":" horiz-adv-x="197" 
d="M90 189q10 10 19 10q10 0 24 -7q16 -7 27 -21t11 -27q0 -22 -21 -30q-4 -2 -14 -2q-30 0 -46 31q-10 20 -10 27q0 9 10 19zM35 418q7 6 22 6q19 0 22 -8q2 -5 9 -5q9 0 17.5 -18t8.5 -34q0 -7 -3 -12q-9 -14 -26 -14q-20 0 -40 20q-20 22 -20 43q0 15 10 22z" />
    <glyph glyph-name="semicolon" unicode=";" horiz-adv-x="157" 
d="M43 193q3 13 5.5 20t9 13.5t15.5 6.5q1 0 3 -0.5t4 -0.5q14 -3 31 -18.5t17 -25.5q0 -12 -14 -40.5t-29 -43.5q-17 -21 -30 -21q-1 0 -3 0.5t-4 0.5q-13 1 -16.5 4.5t-6.5 16.5q-2 6 -2 16q0 9 6 26q7 19 14 46zM27 474q6 7 17 7q14 0 31 -12q21 -18 21 -36q0 -8 -4 -16
q-6 -12 -21 -9q-27 6 -41 38q-9 19 -3 28z" />
    <glyph glyph-name="question" unicode="?" horiz-adv-x="404" 
d="M159 -73q-11 16 -11 33q0 15 7.5 25t20.5 10h6q16 -4 34.5 -18t21.5 -24q1 -3 1 -10q0 -16 -12.5 -25.5t-29.5 -9.5q-23 0 -38 19zM221 608q5 5 42 5q29 0 43 -4q7 -3 16 -10l19 -15.5t14 -11.5q21 -15 21 -60q0 -17 -4 -26q-1 -3 -6.5 -18t-9.5 -24q-10 -28 -24 -46
q-11 -14 -11 -18q0 -2 -35 -63q-55 -98 -55 -160q0 -11 1 -16q2 -18 2 -20q0 -11 -9 -22q-11 -12 -36 -12q-18 0 -26 7q-18 15 -18 57q0 48 23.5 117t63.5 131q48 75 56 117q3 13 1.5 15t-12.5 0q-46 -8 -93.5 -28.5t-73.5 -42.5q-25 -22 -43 -22q-10 0 -17 7q-22 25 -22 35
q0 9 9 24q22 40 82 69q32 13 63 22q35 9 39 13z" />
    <glyph glyph-name="A" unicode="A" horiz-adv-x="491" 
d="M229 597q0 6 -14.5 34.5t-21.5 28.5q-3 0 -4 -7q0 -1 -1.5 -11t-3.5 -26.5t-5 -30.5q-10 -55 -16 -103q-1 -9 -3 -24t-3 -25.5t-2 -15.5l-3 -21l39 3q19 2 68 5q21 1 25 4.5t4 18.5q0 24 -19 67q-3 6 -16 42.5t-17 43.5q-7 10 -7 17zM136 784q6 12 11 14t29 2h32l17 -24
q20 -30 45 -77q41 -74 56 -112q18 -45 19 -47q5 -7 8 -23q2 -12 16 -55t16 -52q38 -148 77 -245q4 -8 4 -15q0 -6 -6 -18q-8 -14 -22 -24t-26 -10q-8 0 -21 13t-17 24q-3 8 -9 8q-5 0 -5 16q0 27 -15 68q-4 9 -21 77q-6 21 -14 21t-19 -7q-16 -8 -26 -8q-13 0 -20 -4t-49 -8
q-48 -4 -55.5 -9.5t-12.5 -42.5q-4 -24 -4 -59v-14q0 -4 0.5 -9t0.5 -7q0 -16 -16 -32t-21 -16q-3 0 -19 7q-17 8 -24.5 19t-14.5 37q-6 21 -6 30q0 7 5 20q8 20 13 59q5 40 11 50q4 7 4 22q0 11 12 75t18 82q4 13 10 68q6 56 19 123.5t20 82.5z" />
    <glyph glyph-name="B" unicode="B" horiz-adv-x="553" 
d="M302 612q-53 15 -106 19l-47 4l3 -17q3 -10 8 -35q25 -104 31 -117q5 -8 5 -21q0 -22 16 -22q7 0 12 1q51 9 140 53.5t89 60.5q0 14 -45.5 36t-105.5 38zM83 717q9 6 11 6q1 0 19 -9q18 -10 31 -10q3 0 122 -17q34 -4 87.5 -20t84.5 -32q28 -14 54.5 -39t31.5 -41
q4 -11 4 -23q0 -39 -48 -76q-21 -16 -64.5 -39.5t-66.5 -30.5q-86 -29 -86 -34t30 -22q51 -27 98 -63.5t69 -67.5q35 -47 43.5 -65t15.5 -64q3 -15 3 -26q0 -14 -6 -33q-10 -34 -37.5 -70t-57.5 -54q-50 -29 -62 -29q-3 0 -33 14q-16 6 -16 27q0 14 8 33q5 11 13 16.5
t33 15.5q18 7 41 26t31 33q7 14 7 43t-17 59q-43 77 -161 136q-26 12 -31 12h-1q-3 -1 3 -29q2 -10 15 -115q13 -123 13 -130t-3 -7t-7 -10q-4 -13 -29 -13q-8 0 -11 3q-4 4 -11 2q-6 -3 -17 11q-10 14 -10 47q-1 73 -15 177t-27 130q-8 18 -8 28q0 1 0.5 3.5t0.5 3.5
q1 3 1 11q0 24 -18 84q-3 10 -8.5 32l-6.5 26q-9 34 -10 36q-2 4 -6 21.5t-9 33.5t-9 18q-14 8 -25.5 22t-11.5 23q0 11 10.5 19.5t24.5 8.5q12 0 24 8z" />
    <glyph glyph-name="C" unicode="C" horiz-adv-x="379" 
d="M50 520q0 4 10.5 25.5t10.5 25.5q0 6 7 13q4 5 42 59t43 60q10 11 25 11q20 0 37 -16q17 -14 17 -29t-22 -40q-22 -24 -38 -54q-13 -24 -20 -35q-5 -7 -20.5 -47t-20.5 -61q-5 -22 -5 -37q0 -65 60 -131q18 -20 29 -27.5t33 -14.5q12 -4 40 -11q37 -3 62 -13
q14 -5 14 -22q0 -10 -3.5 -15t-15.5 -11q-19 -10 -41 -14q-6 -1 -19 -1q-37 0 -80.5 16t-69.5 40q-19 17 -30 21q-9 4 -9 8q0 6 -12 21q-22 28 -36.5 69.5t-14.5 76.5v9q3 69 18 97q9 17 9 27z" />
    <glyph glyph-name="D" unicode="D" horiz-adv-x="638" 
d="M443 359q0 3 10 14t10 14t12 21q14 19 26.5 44.5t12.5 35.5q0 32 -56.5 70.5t-126.5 52.5q-17 4 -69 10l-32 3l3 -13q5 -17 17 -37q10 -17 33 -69.5t24 -55.5q8 -20 22 -67t23 -69q8 -24 10 -32q8 -25 13 -25q3 0 3 9q0 24 40 63q25 25 25 31zM114 718q10 2 22 2
q42 0 119 -10t123 -22q79 -20 146.5 -68t84.5 -109q4 -12 4 -33q0 -36 -9 -52q-7 -12 -20.5 -43.5t-13.5 -34.5q0 -4 -23 -29q-23 -27 -23 -32q0 -6 -8 -12q-8 -8 -14 -22q-9 -20 -27.5 -35t-37.5 -17q-5 -1 -13 -1q-12 0 -28 16q-14 14 -17 14q-1 0 -1 -2t5 -19
q3 -10 3 -17q0 -17 -22 -26q-17 -7 -31 -7q-26 0 -43.5 31t-38.5 109l-20.5 68.5l-19.5 63.5q-17 55 -23 61q-5 5 -15 33q-12 28 -30 59l-20 34h-36q-35 0 -42 10t-13 10q-8 0 -8 17q0 13 5 26.5t11 17.5q10 6 74 19z" />
    <glyph glyph-name="E" unicode="E" horiz-adv-x="507" 
d="M271 623q-7 0 -30 -10t-29 -10q-12 0 -15 -5q-2 -3 -17.5 -7.5t-17.5 -7.5v-1q-1 -1 -1 -2q0 -11 9 -51q5 -21 13 -71q4 -24 17 -24q6 0 21 5q16 5 36 9.5t49.5 9t41.5 6.5q24 4 42 4q21 0 41 -10q16 -7 16 -13q0 -4 -7 -7q-7 -4 -10 -11q-2 -7 -20 -19t-26 -12t-16 -5
q-6 -4 -21 -10l-32 -13l-22 -9l-25 -10q-24 -10 -41.5 -19t-20.5 -14v-2q-1 -1 -1 -2q0 -11 8.5 -33.5t15.5 -30.5q8 -10 37 -10q15 0 15 5q0 7 118 32q35 7 49 7q34 0 34 -25q0 -6 -1 -10q-3 -16 -20.5 -30.5t-64.5 -39.5q-28 -15 -39 -18q-107 -34 -125 -34q-10 0 -15 1
q-25 3 -50 22q-16 12 -23 22.5t-18 36.5q-29 69 -40 202q-5 55 -12 83q-7 32 -11.5 42t-16.5 21q-22 18 -22 45q0 18 11 43q13 26 23.5 33t41.5 7h22h16q37 0 41 4q2 3 37 12.5t37 10.5q10 5 68 14q43 7 75 7q43 0 49 -20q0 -1 0.5 -2t0.5 -2q0 -13 -18 -28t-42 -22
q-58 -17 -71 -19q-4 0 -21.5 -7.5t-22.5 -7.5z" />
    <glyph glyph-name="F" unicode="F" horiz-adv-x="489" 
d="M34 669q-10 20 -10 43t12 38t34 15q34 -1 51 -35q9 -18 15 -24.5t15 -6.5q2 0 14 2q26 6 30 9q5 3 47.5 15t47.5 14q34 19 104 24q11 1 26 1q17 0 27 -9q16 -12 16 -23q0 -10 -10 -21.5t-20 -11.5q-9 0 -17 -8q-7 -7 -12 -7q-6 0 -36 -13q-49 -21 -70 -28q-19 -5 -25 -9
q-5 -3 -43 -16t-43 -21q-2 -4 -2 -9q0 -13 11 -42q11 -35 18.5 -45.5t21.5 -10.5q8 0 13 1q22 2 32 10q8 7 40 16.5t46 9.5q13 0 16 5q1 2 7 2q10 0 24 -6.5t18 -13.5q7 -11 -4 -26q-14 -20 -47 -34l-110 -56l-27 -15l4 -45q4 -50 4 -105v-60l-16 -15q-13 -13 -23 -13
q-3 0 -5 1q-27 8 -38 40q-5 15 -15.5 74.5t-10.5 72.5t-23 35l-24 21l3 29q3 27 9 31q5 3 5 15q0 24 -19 67q-7 16 -7 18q0 5 -14 24q-9 13 -15.5 28.5t-13 35.5t-11.5 32z" />
    <glyph glyph-name="G" unicode="G" horiz-adv-x="554" 
d="M223 687q12 6 26 6q18 0 26 -7q9 -7 19 -7q9 0 6 -8t2 -15q4 -4 4 -10q0 -18 -42 -60q-19 -19 -27.5 -29.5t-20.5 -28l-20 -29.5q-70 -94 -70 -180q0 -41 16 -76q8 -18 13.5 -23.5t15.5 -7.5q16 -4 77 -4q44 0 67 3q6 1 17 2t24.5 2t20.5 2l36 3v24q-2 56 -14 68
q-6 6 -22 -4q-13 -7 -30 -7q-29 0 -41 17q-7 10 -7 28q0 30 15 44q45 41 51 41q3 0 20 13t40 13t25 -4q1 -2 20 -18.5t19 -21.5q0 -8 5 -16q8 -14 17.5 -53t10.5 -63l5 -127l2 -93l-22 -22q-23 -22 -44 -22q-14 0 -30 11q-27 19 -27 65q0 15 1 24q1 10 1 26q0 22 -7 22
q-6 0 -18 -14q-13 -13 -21 -13q-12 0 -93 -23q-25 -7 -61 -7q-62 0 -101 18q-17 8 -37 31.5t-33 49.5q-11 22 -13 36.5t-2 64.5q0 72 12 101q13 32 21 43q6 9 11 25q3 12 22 36q17 20 17 26q0 4 11 15q5 5 15.5 22.5t14.5 21.5t18.5 24t19.5 25q3 4 9 11l9.5 11t9 9t11.5 9z
" />
    <glyph glyph-name="H" unicode="H" horiz-adv-x="485" 
d="M304 692q13 7 26 7q24 0 45 -30q12 -16 15 -26t4 -31q2 -58 31 -206q12 -57 23 -170t11 -170v-15l-2 -56l-18 -17q-18 -16 -44 -16q-19 0 -24 2.5t-12 18.5q-10 23 -10 64q0 29 -4.5 96.5t-6.5 69.5l-72 4l-70 3l3 -57q5 -81 7 -104l3 -47l-14 -15q-21 -21 -41 -21
q-9 0 -14 1q-29 4 -38.5 32.5t-12.5 116.5q-5 159 -10 202q-11 95 -21.5 149t-32.5 138q-1 4 -1 12q0 29 21 53q10 10 24 10q21 0 36 -17q16 -17 22 -31t13 -48q38 -197 38 -217q0 -26 15 -35.5t73 -16.5q35 -3 47 -7l6 -2q4 0 4 8t-15 96q-33 191 -33 217q0 14 7 30
q8 17 22 25z" />
    <glyph glyph-name="I" unicode="I" horiz-adv-x="662" 
d="M357 765q94 12 186 12q61 0 78 -9q15 -10 15 -31q0 -23 -19 -35q-5 -4 -13 -4q-9 0 -22 4q-25 6 -80 6q-92 0 -103 -11q-1 -1 -1 -9q0 -18 3 -43q2 -24 2 -54q0 -121 -16 -291q-15 -150 -15 -230v-23q2 -82 4 -95q2 -15 5 -19.5t13 -5.5h3q20 0 63 10l53 11l18 -14
q12 -10 15 -16t3 -24q0 -28 -11.5 -37.5t-44.5 -11.5q-35 -2 -55 -8q-23 -7 -41 -7q-23 0 -71 -10q-44 -9 -78 -9q-36 0 -47 11q-8 8 -8 29q0 19 7 32q5 10 15 13t44 8q27 4 30 14q1 4 5 124q4 127 10 182q21 202 21 365q0 88 -8 96q-2 2 -12 2q-26 0 -103 -11
q-111 -15 -139 -15q-24 0 -32 10q-8 11 -8 21q0 12 11 25q10 11 29 14t160 19l75 8.5t59 6.5z" />
    <glyph glyph-name="J" unicode="J" horiz-adv-x="447" 
d="M299 719q5 0 21 -15t20 -15q7 0 7 -10q0 -11 11 -19q11 -9 30.5 -48t26.5 -68q8 -32 8 -81q0 -90 -19 -168q-13 -48 -39 -116q-11 -27 -51 -67q-23 -23 -66.5 -37t-89.5 -14q-43 0 -76 14q-13 6 -30 10l-15 4q-13 20 -13 48q0 15 6 20q6 4 82 4q52 1 67 3t28 9
q16 9 36 29t27 34q29 62 45 143q6 32 6 67q0 77 -22 123q-10 23 -38.5 54t-39.5 31q-8 0 -22 14.5t-19 27.5t-5 21q0 14 14 28q12 12 21 12q4 0 13.5 -2t15.5 -3q20 -3 28 -11q5 -7 13 -7q4 0 9 -7.5t10 -7.5z" />
    <glyph glyph-name="K" unicode="K" horiz-adv-x="683" 
d="M34 743q11 11 17 11q4 0 23 -7q14 -6 31 -26.5t17 -30.5q0 -6 4 -6t11 -21q9 -28 19 -46q14 -28 45 -144q14 -45 16 -47h1q7 0 38 30t55 61q17 22 40 47q20 23 31 23q6 0 10 -1q22 -3 38 -20.5t16 -38.5q0 -13 -5 -21t-26 -28q-28 -26 -28 -30q0 -5 -35 -42
q-34 -34 -34 -42q0 -4 2 -7q4 -7 16 -12.5t27.5 -11t21.5 -8.5q54 -26 95 -33q5 -1 48 -14t50 -13q8 0 11 -5t16 -5t33 -20.5t20 -33.5q0 -12 -16 -28q-14 -14 -29 -14q-13 0 -23 1q-42 4 -84 18q-46 16 -61 16q-14 0 -69 18.5t-79 31.5q-28 16 -40 16q-9 0 -9 -11
q0 -2 2 -20q1 -7 1 -20q0 -66 -46 -66q-18 0 -31.5 14t-17.5 37q-3 20 -10 62.5l-11 68.5q-17 103 -34.5 164t-55.5 147q-21 46 -21 75q0 21 10 32z" />
    <glyph glyph-name="L" unicode="L" horiz-adv-x="535" 
d="M34 790q9 10 54 10q32 0 40.5 -2t17.5 -12t11 -19.5t3 -44.5q2 -53 7 -89q6 -34 15.5 -113.5t9.5 -91.5q0 -13 12.5 -91.5t15.5 -82.5q2 -3 6 -3q9 0 70 29q50 25 59 25q6 0 25 15q18 15 49 18q7 1 18 1q16 0 25.5 -6t22.5 -24q16 -22 16 -49q0 -13 -5 -28
q-4 -10 -20 -18.5t-31 -8.5q-2 0 -4 0.5t-3 0.5q-2 1 -8 1q-32 0 -78 -22q-118 -54 -133 -68q-21 -18 -50 -18q-13 0 -22 4q-15 7 -31 26l-16 20l4 52q1 6 1 22q0 98 -24 201q-4 15 -10 91q-12 157 -35 173q-10 7 -10 16q0 8 -6 14t-6 28q0 32 10 44z" />
    <glyph glyph-name="M" unicode="M" horiz-adv-x="754" 
d="M52 787q6 9 12.5 11t30.5 2q23 0 31 -2.5t17 -11.5q12 -12 16 -26q3 -18 81 -174q12 -22 12 -28q0 -5 29 -65l43 -93.5l39 -84.5q16 -32 16 -41q0 -6 8 -18t12 -12h1q2 2 6 59q4 63 8.5 100.5t11 75.5t10.5 77q5 48 8 58t13 18q13 10 24 10q20 0 41 -21q12 -10 16.5 -20
t9.5 -36q16 -78 22 -91q7 -14 13 -40q24 -96 25 -101q5 -19 21 -87.5t24 -94.5q4 -18 19 -73q9 -39 25 -89t21 -57q12 -12 12 -37q0 -10 -3 -22q-7 -27 -49 -40q-3 -1 -11 -1q-26 0 -26 9q0 6 -12 20q-7 8 -11 18t-6 18t-4.5 23.5t-4.5 25.5q-3 12 -45 195q-2 8 -4.5 21
t-4.5 21.5l-3 12.5q-18 64 -27 103q-13 48 -17 48q-11 0 -11 -96q0 -170 19 -205q6 -12 6 -26q0 -36 -26 -57q-8 -6 -25 -6q-23 0 -34 9q-9 8 -35 61q-5 12 -46 100q-22 46 -22 49t-20 45l-18.5 40.5l-16.5 36l-18 40.5q-3 8 -14 32.5t-15 32.5q-19 44 -44 91t-29 47
q-5 0 -8 -126q-4 -153 -9 -197q-4 -39 -4 -60q0 -17 4 -26q10 -23 10 -43q0 -49 -63 -58q-12 -2 -14 -2q-9 0 -23 15q-22 23 -22 51q0 22 9 59q11 45 17 111q14 132 14 270q0 18 -1 20t-3 74q0 65 -9 105q-6 26 -6 34q0 7 7 19z" />
    <glyph glyph-name="N" unicode="N" horiz-adv-x="554" 
d="M435 790q16 10 32 10q21 0 42 -18q15 -13 17.5 -20t2.5 -31q0 -32 -5 -35t-5 -18q0 -16 -5 -24q-6 -11 -26 -144q-6 -41 -6 -168q0 -128 6 -134t6 -26q0 -28 -10 -48q-16 -31 -46 -31q-13 0 -31.5 15t-28.5 32q-12 21 -32 48q-18 22 -25 33l-67 117q-22 40 -49.5 82
t-31.5 42q-6 0 -9 -54q-7 -104 -31 -245q-13 -76 -13 -88q0 -15 -10 -32q-9 -16 -20 -16q-3 0 -19 2q-28 3 -37 12q-10 10 -10 38q0 37 17 105q37 151 46 346v5q0 16 -6 56l-8 40l14 20q16 19 32 26q8 4 15 4q8 0 27 -11q38 -19 55 -77q8 -29 22 -48q14 -18 14 -20
q0 -5 28 -47q28 -43 41 -66.5t29 -48.5q14 -21 23 -40q8 -16 11 -16q8 0 11 113q3 118 11 158q8 38 8 92v16v28q0 39 2 47q3 9 19 19z" />
    <glyph glyph-name="O" unicode="O" horiz-adv-x="457" 
d="M313 658q-3 11 -19 11q-17 0 -31 -11q-14 -10 -48.5 -54.5t-34.5 -52.5q0 -7 -10 -17q-22 -20 -38 -72t-16 -101q0 -21 5 -43q9 -33 14.5 -46t17.5 -22q13 -10 24 -10q20 0 68 47q46 44 74 99q21 42 21 75q0 5 -1 6q-2 5 -4 38q-2 24 -10 80.5t-12 72.5zM313 782
q10 7 18 7q11 0 33 -13q20 -12 26 -26t15 -66q3 -23 19 -108q9 -50 9 -96q0 -71 -19 -122q-14 -38 -41 -83q-8 -16 -47 -61t-57 -58q-25 -18 -35 -21q-14 -4 -16 -7q-3 -5 -17 -5q-21 0 -51 9t-42 20q-44 39 -70 118q-15 45 -15 84v17q2 109 35 177q34 70 62 99
q9 9 41.5 53.5t41.5 60.5q9 15 25 15h13q36 -2 40 -2q21 0 32 8z" />
    <glyph glyph-name="P" unicode="P" horiz-adv-x="607" 
d="M35 642q12 11 24 11q1 0 4.5 -0.5t5.5 -0.5q23 -4 97 -12.5t101 -13.5q17 -3 50 -7.5l40 -5.5q37 -6 40 -9q7 -5 27 -8q30 -4 77.5 -27.5t64.5 -43.5q16 -20 16 -33q0 -12 -1 -21q-2 -23 -5.5 -33.5t-17.5 -28.5q-15 -21 -56 -54q-30 -24 -72.5 -52t-48.5 -28q-5 0 -9 -7
q-3 -5 -60 -37t-63 -32t-20 -8q-17 -8 -14 -22q6 -27 22 -149q10 -69 13 -72q2 -2 2 -7q0 -10 -8 -22.5t-19 -19.5q-10 -5 -18 -5q-17 0 -34 20q-9 9 -11 20t-4 57q-4 64 -11 106l-6 42l-15 -2q-1 0 -3 -0.5t-3 -0.5q-11 0 -22 14q-19 22 -19 30q0 4 5 16q8 14 8 22
q0 4 16 12q14 6 14 17q0 9 -9 38q-30 90 -37 105q-13 30 -13 44q0 10 6 25q9 23 31 23t37 -23q11 -18 11 -22t20 -64q19 -56 23 -82q3 -21 10 -21q14 0 88.5 40t128.5 77q36 25 65 54t29 39q0 15 -17 25.5t-60 23.5q-114 35 -300 49q-60 4 -82 12t-27 26q-5 14 9 26z" />
    <glyph glyph-name="Q" unicode="Q" horiz-adv-x="586" 
d="M453 594q-11 12 -53 13h-16q-44 0 -53 -12q-7 -7 -12 -7q-6 0 -19 -13q-11 -12 -23 -12q-2 0 -6 0.5t-7 0.5l-24 3l-23 -30q-38 -51 -68 -128q-15 -36 -27 -79q-3 -10 -8.5 -33.5l-7.5 -32.5q-7 -33 -7 -56q0 -3 0.5 -10.5t0.5 -11.5q1 -29 4 -38.5t13 -20.5
q15 -15 32 -17h6q15 0 35 6.5t20 12.5q2 3 3 3q4 -4 23 14q20 18 27 18t12 10q5 9 18 13q25 7 25 39q0 12 -1 19t-1 20q0 17 5 30q4 10 8.5 12.5t19.5 2.5q22 0 25 -5q9 -14 21 9l7.5 15t8.5 16q8 15 24 68.5t22 86.5q7 42 7 57q0 26 -11 37zM287 723q3 6 24 6q19 0 34 -16
q15 -17 52 -20q56 -5 84 -20.5t40 -48.5q11 -28 13 -30q3 -4 3 -23q0 -53 -12 -101q-33 -154 -51 -181q-12 -19 -12 -22q0 -4 -14 -27q-12 -21 -12 -31q0 -8 16.5 -44.5t28.5 -58.5q24 -42 52 -58q28 -15 28 -41q0 -10 -5 -15q-13 -13 -42 -13q-11 0 -17 1q-17 2 -45 27
q-31 28 -64 97q-14 29 -18 29q-5 0 -21 -16q-65 -66 -97.5 -85.5t-78.5 -20.5h-15q-25 0 -40 13q-16 13 -22 13q-4 0 -19.5 15.5t-25.5 29.5q-28 40 -28 123q0 28 5 70q4 28 18.5 84.5t20.5 63.5q3 4 11 28q10 30 16 40q32 59 60 99q14 20 57 64t59 54q15 11 17 15z" />
    <glyph glyph-name="R" unicode="R" horiz-adv-x="554" 
d="M381 616q-37 9 -143 10q-28 1 -68 1q-24 0 -36.5 -1t-16 -3.5t-3.5 -6.5q0 -24 61 -172q11 -33 15 -33t51 36t68 45q20 9 66 52.5t46 53.5q0 9 -40 18zM122 721q19 2 30 0q13 -2 93 -4q90 -3 122.5 -7t59.5 -17q49 -22 63.5 -34.5t23.5 -41.5q8 -26 8 -40q0 -2 -0.5 -4.5
t-0.5 -3.5q-5 -18 -41 -58.5t-75 -69.5q-31 -24 -40 -32q-66 -60 -88 -73q-11 -5 -11 -10q0 -7 52 -57q48 -48 148 -175q12 -16 20 -16q7 0 7 -7q0 -5 11 -16q25 -22 25 -72q0 -25 -9 -35q-17 -20 -45 -20q-22 0 -39 13t-21 36q-8 44 -74 133q-47 62 -63.5 80t-25.5 19h-2
q-4 0 -4 -4q0 -5 26 -97l7.5 -28.5l8 -32l8.5 -34.5q8 -27 8 -53q0 -23 -8 -31q-4 -4 -23 -4h-8q-18 1 -24 4t-12 14t-18 59q-41 170 -49 201q-8 34 -13.5 46t-18.5 26q-24 25 -24 44q0 5 2 25q2 14 2 21q0 31 -30 97q-7 16 -22.5 56.5t-22.5 55.5q-6 13 -10 64q-1 12 -1 28
q0 22 10 32q20 18 88 23z" />
    <glyph glyph-name="S" unicode="S" horiz-adv-x="376" 
d="M145 749q42 20 57 20q14 0 32 -16l18 -17l-5 -29q-4 -21 -8 -27.5t-22 -16.5q-14 -8 -40 -21q-15 -7 -36.5 -29.5t-24.5 -33.5q-1 -2 -1 -6q0 -13 20.5 -39.5t87.5 -104.5q40 -45 47 -58q47 -81 59 -115q23 -64 23 -119q0 -34 -10 -53q-4 -7 -11.5 -30.5t-17.5 -34.5
q-12 -13 -21 -32q-12 -25 -52 -75q-6 -6 -28 -6q-26 0 -41 16t-15 42q0 16 6 35q10 29 39 57q25 24 42 56t17 54q0 27 -21.5 80t-42.5 76q-9 11 -13 18q-5 9 -68 79q-53 61 -72 93t-19 63q0 2 0.5 6.5t0.5 6.5q9 106 120 161z" />
    <glyph glyph-name="T" unicode="T" horiz-adv-x="556" 
d="M42 695q7 8 32 8q18 0 32 -1q56 -4 99 -9q28 -3 50 -3q34 0 42 8q6 6 19 6q17 0 37 -10q17 -9 68 -9q83 -2 94 -24q7 -13 12 -20q4 -4 4 -14q0 -20 -12 -35q-6 -7 -37 -7q-25 0 -44 1l-75 2l-6 -25q-3 -12 -9.5 -67t-8.5 -65q-5 -18 -21 -370q-1 -37 -7.5 -47t-29.5 -17
q-10 -2 -13 -2q-21 0 -44 22q-15 12 -15 33q0 11 5 24q4 10 10 85l7.5 82.5t6.5 73.5q15 173 19 263l1 17h-33q-47 1 -102.5 6t-67.5 10q-17 8 -25 20q-6 9 -6 15q0 7 4 19q5 21 14 30z" />
    <glyph glyph-name="U" unicode="U" horiz-adv-x="571" 
d="M31 729q7 5 39 5q22 0 30 -2.5t21 -14.5l18 -18l1 -116q2 -121 3 -123q5 -11 13 -93q5 -55 36 -123t63 -96q38 -33 55 -33q26 0 57.5 45.5t51.5 111.5q26 84 30 122q1 7 1 26q0 83 -18 124q-12 26 -12 38q0 11 9 17q11 8 35 8q44 0 63 -19q9 -9 12.5 -33.5t6.5 -99.5
q1 -16 1 -46q0 -95 -21 -165q-11 -34 -41.5 -96t-45.5 -79q-12 -15 -12 -21q0 -3 -19 -16q-27 -17 -82 -17q-15 0 -21 3q-7 4 -32 10q-23 7 -32 16q-8 10 -17 10t-16 9q-6 6 -30 26q-42 35 -78.5 117t-45.5 160q-3 27 -11 62q-6 30 -8 112q0 81 -5 89q-4 7 -6 52v15
q0 29 7 33z" />
    <glyph glyph-name="V" unicode="V" horiz-adv-x="541" 
d="M405 760q20 10 42 10q16 0 23 -3t19 -16q27 -30 27 -63q0 -21 -12 -26q-21 -10 -53 -172q-26 -127 -26 -281q0 -47 5 -69q4 -18 4 -30q0 -8 -1 -11q-2 -12 -6.5 -17t-17.5 -12q-19 -10 -38 -10q-14 0 -29 6q-16 7 -40 49q-13 23 -52.5 88t-52.5 92q-34 69 -73 138t-51 83
q-49 55 -49 97q0 13 3 18t13 12q14 8 29 8q23 0 43.5 -15t26.5 -38q3 -13 20 -39q13 -21 35 -60l31 -54l26.5 -47.5l41 -73t21.5 -32.5q6 0 13.5 53.5l17 124.5t17.5 99q23 88 24 140l1 43z" />
    <glyph glyph-name="W" unicode="W" horiz-adv-x="665" 
d="M520 793q0 6 30 6h22l52 -2l-1 -17q0 -21 -7 -82q-5 -43 -5 -96q0 -23 1 -33q12 -256 22 -350q6 -56 6 -69q0 -14 -8 -25q-14 -19 -47 -19q-9 0 -20 3q-12 4 -20.5 14t-28.5 46q-36 66 -56 113q-19 45 -21 45q-5 0 -8 -106q-1 -27 -2 -61.5l-1.5 -52t-0.5 -23.5
q0 -16 3 -33q2 -14 2 -17q0 -10 -12 -25q-13 -16 -31 -16q-29 0 -39.5 8.5t-33.5 49.5q-53 93 -75 137l-92 188q-68 148 -103 183q-22 22 -22 46q0 9 1 14q6 39 34 39q11 0 32 -8q20 -8 34 -24.5t14 -30.5q0 -5 9 -25l39 -82q139 -293 148 -302q1 -1 2 -1q7 0 11.5 50
t4.5 111q0 23 -2 63q-4 77 -6 182l-2 118l13 5q4 2 14 2q33 0 55 -25q12 -14 21 -43.5t48 -197.5q24 -104 41 -131l1 -1q3 0 3 31q0 9 -2 75q-8 307 -13 335q-4 20 -4 34z" />
    <glyph glyph-name="X" unicode="X" horiz-adv-x="541" 
d="M313 578q7 13 23 13q24 0 50 -27q10 -11 10 -23q0 -2 -2 -26q-3 -26 -9.5 -57t-15.5 -67t-13 -56l-12 -52l25 -30q54 -63 115 -106q32 -24 32 -52q0 -8 -5 -20q-14 -28 -49 -28q-22 0 -34 15q-95 118 -103 118q-2 0 -7.5 -21.5t-12 -53.5t-10.5 -59q-4 -24 -4 -41
q0 -16 6 -46q1 -3 1 -10q0 -24 -34 -42q-16 -8 -23 -8q-6 0 -14 3q-35 11 -43 60q-3 17 -3 26q0 11 5 24q6 15 10 43q10 83 27 147q7 24 13 58l3 21l-104 106q-103 105 -107 116q-2 6 -4 33v7q0 16 14 22q10 5 14 5q5 0 17 -6q25 -14 91 -87q93 -102 101 -102h1q4 4 20 70.5
t20 91.5q3 26 11 41z" />
    <glyph glyph-name="Y" unicode="Y" horiz-adv-x="454" 
d="M44 706q4 2 13 2q21 0 46.5 -17.5t38.5 -43.5q17 -31 78 -105q44 -53 50 -53q1 0 3 2q4 8 18 50t34 88.5t28 55.5q5 8 20 8q11 0 13 -5q3 -5 13 -5q9 0 19.5 -13t10.5 -24q0 -17 -53 -154q-22 -58 -22 -81q0 -9 3 -15q6 -12 6 -24q0 -17 -13 -33q-12 -16 -19 -16
q-6 0 -10 -11q-25 -83 -62 -230l-6.5 -25.5t-6 -24t-3 -21t-1.5 -32.5q0 -27 -2.5 -33.5t-14.5 -15.5q-17 -13 -43 -13q-42 0 -51 26q-5 15 -5 28q0 23 14 65q21 61 77 266q15 54 15 71q0 20 -29 56q-59 78 -75 95q-18 18 -44 48q-25 27 -36 31q-14 5 -19 30t-5 37
q0 28 20 36z" />
    <glyph glyph-name="Z" unicode="Z" horiz-adv-x="627" 
d="M49 163q0 8 5 8t5 -8t-5 -8t-5 8zM333 625q40 5 82 5q62 0 83 -8q18 -8 32 -22q16 -15 16 -39q0 -39 -34 -89.5t-181 -228.5q-45 -57 -64 -78q-10 -13 -10 -18q0 -10 54 -10q6 0 21 0.5t25 0.5q101 3 132 10q23 5 37 5q32 0 59 -24q17 -16 17 -28q0 -2 -0.5 -6t-0.5 -7
q-5 -51 -49 -51q-13 0 -20 2q-6 2 -27 2q-25 0 -38 -2q-33 -4 -167 -8q-126 -2 -133 -3h-2q-11 0 -29 9q-13 7 -17 13t-8 27q-4 22 -4 28q0 26 25 54q18 20 18 23q0 7 54 69l75 90l56.5 67.5t54.5 66.5q2 3 26 33q14 18 11 23t-25 5q-26 0 -54 -5q-33 -5 -119.5 -24.5
t-113.5 -27.5q-29 -8 -44 -8q-19 0 -29 10q-18 16 -18 49q0 14 4 23q4 12 10.5 14.5t50.5 10.5q169 36 244 47z" />
    <glyph glyph-name="a" unicode="a" horiz-adv-x="519" 
d="M316 364v25l-18 -1q-45 -1 -104 -44q-40 -29 -68 -58t-28 -42q0 -22 58 -32q30 -5 39 -5q10 0 35 5q42 10 68 36t26 58q0 10 -3 19q-5 15 -5 39zM276 466q11 1 31 1q85 0 110 -36q18 -27 18 -33t-8 -14q-10 -10 -19 -10q-7 0 -7 -8q0 -6 3 -23q7 -55 29 -128.5t44 -117.5
q18 -35 18 -51q0 -20 -30 -33l-23 -11l-14 14q-10 10 -31 56t-30 77q-6 19 -17 19q-8 0 -22 -9q-26 -18 -69 -29t-79 -11q-26 0 -37 5q-4 2 -16 5.5t-16 5.5q-78 23 -87 103q-1 6 -1 16q0 26 31 75q11 17 54.5 55t66.5 51q3 2 8 5t8 5t5 3q17 14 80 18z" />
    <glyph glyph-name="b" unicode="b" horiz-adv-x="364" 
d="M250 287q-15 22 -35 22q-15 0 -37 -14q-10 -7 -11.5 -15t-1.5 -47q0 -54 -6 -58q-7 -4 1 -10q8 -5 15 -5q26 0 66 45q20 22 20 44q0 21 -11 38zM34 756l-10 44h35q34 0 37 -5q13 -22 30 -173l11 -85.5t12 -104.5q5 -60 10 -65q2 -2 8 -2q9 0 23 3q27 6 45 6q36 0 69 -33
q36 -36 36 -85q0 -77 -81 -138q-39 -29 -61 -29q-14 0 -36 6q-32 9 -32 33q0 3 2 11q2 7 0.5 9t-7.5 2q-13 0 -25.5 7.5t-14.5 17.5q-11 35 -11 72q0 25 7 45q6 14 6 30q0 31 -16 184q-15 149 -37 250z" />
    <glyph glyph-name="c" unicode="c" horiz-adv-x="232" 
d="M77 458q10 12 11 12h1q10 0 33 -9.5t34 -18.5q18 -15 18 -32q0 -11 -10 -33q-31 -68 -31 -99q0 -18 17 -29q8 -5 19 -9.5t18.5 -9.5t13.5 -15q6 -12 6 -17q0 -4 -5 -16q-9 -18 -46 -29q-2 -1 -9 -1q-15 0 -35.5 5t-26.5 11q-8 8 -11 9q-7 3 -19.5 23.5t-16.5 36.5
q-15 61 -15 75q0 10 6 29q30 93 48 117z" />
    <glyph glyph-name="d" unicode="d" horiz-adv-x="256" 
d="M118 289q0 -6 4 -6q3 0 6.5 3.5t3.5 6.5q0 4 -6 4q-8 0 -8 -8zM45 540q3 6 25 6q26 0 42.5 -14.5t35.5 -54.5q27 -52 38 -62q14 -14 21 -47q3 -16 13 -49.5t12 -54.5v-7q0 -18 -17 -39q-18 -22 -22 -22q-6 0 -16 -12q-10 -11 -28 -11q-12 0 -21 1q-39 2 -56 16
q-33 27 -45 91q-4 17 -4 35q0 32 19 58q15 21 15 25q0 5 10 10q9 5 9 13t-12 32q-20 40 -20 77q0 7 1 9z" />
    <glyph glyph-name="e" unicode="e" horiz-adv-x="342" 
d="M207 371q19 22 19 27q0 1 -1 1q-11 0 -42.5 -18.5t-32.5 -25.5q-2 -10 -10 -18q-5 -5 -5 -9q0 -3 4 -3q8 0 22 7q18 9 46 39zM205 496q20 7 42 7q29 0 43 -14q10 -11 18.5 -33t8.5 -39q0 -44 -44.5 -99t-104.5 -86l-34 -16l8 -17q9 -18 27.5 -35.5t30.5 -20.5
q26 -7 26 -43q0 -17 -9.5 -24t-35.5 -10l-30 -4l-28 26q-28 26 -45 60q-18 34 -30 38q-24 9 -24 38q0 9 1 14q5 26 13 31q10 6 10 26q1 43 21 85.5t53 69.5q36 30 83 46z" />
    <glyph glyph-name="f" unicode="f" horiz-adv-x="299" 
d="M78 774l1 26h18q19 0 36 -7q26 -11 49 -39t23 -47q0 -5 -4 -11q-6 -7 -13 -7q-9 0 -22 8q-14 9 -19 5q-8 -8 -8 -207q0 -43 1 -59l1 -52l29 -3q33 -4 39 -7q8 -4 20 -8q11 -3 27 -17.5t17 -23.5q1 -10 -9 -11q-12 -2 -12 -6t-51 -8l-52 -4l3 -57q4 -59 9 -91q3 -14 3 -26
q0 -34 -19 -37h-2q-11 0 -26.5 20t-18.5 37q-1 4 -3 22.5t-5 38.5t-6.5 41t-7 35.5t-6.5 16.5q-6 6 -11 4h-2q-6 0 -15.5 14t-13.5 28q-4 16 -4 25q0 12 21 13l22 1l4 163q4 191 7 230z" />
    <glyph glyph-name="g" unicode="g" horiz-adv-x="336" 
d="M67 408q13 13 20 17t20 4q20 0 25 -7q1 -3 15 -12q8 -4 18 -19t10 -23v-2q0 -3 2 -1q1 1 3 1q13 0 26 -28q11 -22 36 -52q70 -87 70 -185q0 -35 -7.5 -80.5t-14.5 -50.5q-4 -3 -4 -11q0 -7 -20.5 -51t-25.5 -47q-4 -4 -7 -13q-4 -11 -20 -29q-18 -19 -33 -19
q-12 0 -27 9.5t-15 17.5q0 9 -8 23q-5 12 -5 22q0 18 12 23q13 5 23 17t24 42q42 87 43 166v16q0 32 -12 55q-11 20 -24 38t-17 18t-13 -20t-21 -23t-12 -8t-15 -5t-18 5q-4 6 -10 4h-3q-11 0 -24.5 14t-22.5 34q-11 25 -11 39q0 4 2 24q5 30 13 48q8 14 8 22q0 5 20 27z
" />
    <glyph glyph-name="h" unicode="h" horiz-adv-x="430" 
d="M35 772q9 12 21 12q13 0 25 -13t36 -108q39 -164 52 -277q1 -6 3 -51q0 -37 6 -41q5 -3 7 2q1 6 12 6t24 -7q15 -7 46 -57t31 -67q0 -8 5 -13q4 -4 10 -23q5 -14 9.5 -17t29.5 -5q34 -3 43 -11q10 -10 10 -26q0 -12 -6 -19q-7 -8 -44 -21t-55 -13q-19 0 -36 21t-17 22
q0 5 -18.5 46t-20.5 41q-3 0 -9 -34.5t-7 -47.5q0 -13 -10.5 -24t-25.5 -15q-2 -1 -6 -1q-11 0 -20.5 7t-9.5 14t-7 7q-6 0 -9 33t-9 160q-7 130 -15 199t-31 166q-25 102 -25 128q0 12 11 27z" />
    <glyph glyph-name="i" unicode="i" horiz-adv-x="175" 
d="M76 352q12 16 25 16q12 0 27 -15q13 -14 16.5 -35t5.5 -110l2 -98l-15 -11q-13 -8 -18 -8t-14 3q-25 8 -31 32t-8 118q-1 23 -1 53q0 39 11 55zM42 631q10 12 19 12q12 0 48 -40q23 -26 23 -44q0 -11 -9 -19q-7 -6 -21 -6q-22 0 -46 12.5t-30 27.5q-2 8 -2 13q0 24 18 44
z" />
    <glyph glyph-name="j" unicode="j" horiz-adv-x="215" 
d="M57 434q7 10 15 10q12 0 37 -27q82 -90 82 -189q0 -86 -64 -150q-19 -19 -38 -19q-28 0 -43 13.5t-20 45.5q-1 5 -1 13t11 16t20 8q13 0 30 32.5t22 64.5q1 5 1 15q0 26 -27 69q-33 50 -33 75q0 12 8 23zM30 648q5 8 17 8q19 0 28 -14q6 -9 20 -25q12 -12 12 -23
q0 -6 -5 -31q-2 -8 -6.5 -10t-19.5 -2q-23 0 -32 7q-20 15 -20 61q0 19 6 29z" />
    <glyph glyph-name="k" unicode="k" horiz-adv-x="328" 
d="M34 596q9 7 15 7q5 0 24 -19.5t26 -32.5q22 -46 49 -123l10 -32l13 7q12 6 24 18q11 12 31.5 26t27.5 14h1q9 -2 28.5 -28.5t19.5 -36.5q0 -12 -4.5 -18t-25.5 -22q-58 -45 -58 -60q0 -6 24 -21q22 -13 42.5 -38t20.5 -40q0 -9 -3.5 -12t-17.5 -3h-15q-38 2 -59 11
q-25 10 -28 10q-7 0 -7 -17q0 -38 -25 -38q-39 0 -49 104q-1 17 -7 59t-7 50q-2 15 -14 51.5t-21 55.5q-25 54 -25 87v5q1 30 10 36z" />
    <glyph glyph-name="l" unicode="l" horiz-adv-x="168" 
d="M38 636q11 12 25 12q21 0 35 -23q10 -16 17 -122q12 -164 23 -269q7 -70 7 -77q0 -19 -9 -28q-11 -11 -16 -11q-6 0 -8 -5q-2 -3 -5 -3q-7 0 -19 8t-19 17q-12 18 -12 66q0 34 -2 67t-6.5 77t-6.5 66q-4 49 -13 126q-5 45 -5 58q0 24 14 41z" />
    <glyph glyph-name="m" unicode="m" horiz-adv-x="540" 
d="M203 576q5 5 17 5q13 0 23.5 -7t10.5 -17q0 -9 5 -12t5 -22q1 -14 21 -112q11 -60 20 -60q7 0 52 60q3 3 41 59q26 40 37 52.5t20 12.5q5 0 11 -3q18 -7 25 -21t16 -62q9 -51 9 -78q0 -6 -4 -74q-4 -82 -4 -110v-13l1 -33l-20 -13q-18 -12 -31 -12q-17 0 -32 22l-13 19
l6 85q7 85 7 106q0 12 -3 12q0 -1 -1 -1q-4 -2 -33 -43.5t-42 -63.5q-30 -50 -58 -50q-11 0 -17 5q-18 12 -35 68q-21 62 -28 105q-7 31 -11 31t-14 -20t-10 -28t-16 -29q-15 -21 -15 -25q0 -10 -43 -96q0 -1 -1 -4t-1 -5q-1 -5 -15.5 -12.5t-22.5 -7.5t-23 17
q-13 15 -13 27q0 18 18.5 58t78.5 154q23 44 40 72q19 30 24 41q10 17 18 23z" />
    <glyph glyph-name="n" unicode="n" horiz-adv-x="604" 
d="M208 430q0 6 19 21.5t26 15.5q10 0 26.5 -18.5t27.5 -42.5q13 -27 18 -36q4 -7 4 -18q0 -9 24.5 -51t49.5 -75q25 -34 38.5 -45t33.5 -11q1 0 5 0.5t6 0.5q34 5 35 5h2q11 0 31 -13l25 -16l-21 -18q-17 -16 -52 -30q-24 -10 -36 -10q-8 0 -20 3q-61 14 -99 59
q-53 61 -89 135q-16 34 -20 34q-1 0 -2.5 -1.5t-3.5 -5t-4 -8t-4 -9.5q-43 -94 -61 -125q-19 -28 -51 -28q-17 0 -26 8q-10 8 -38 78t-28 88q0 15 11 27t25 15q3 1 8 1q9 0 25 -16q19 -19 22 -29q4 -15 10 -22q5 -6 7 -4.5t10 14.5q10 17 10 22q0 1 28 52t28 53z" />
    <glyph glyph-name="o" unicode="o" horiz-adv-x="421" 
d="M294 463q6 1 16 1q48 0 73 -62q14 -37 14 -59q0 -24 -13 -50q-11 -24 -43 -60t-66 -62q-21 -16 -46.5 -29.5t-35.5 -13.5q-8 0 -13 -5q-4 -4 -44 -8q-10 -1 -24 -1q-15 0 -33 11q-19 12 -37 39q-16 26 -19 61v10q0 62 40 117.5t108 88.5q38 19 48 19q4 0 8 -2
q28 -14 31 -52v-6q0 -16 -16 -28q-18 -14 -36 -21q-40 -15 -69 -47q-12 -13 -21 -36.5t-9 -39.5q0 -9 3 -12t14 -3q29 0 62 14q41 18 80 54.5t46 63.5q1 2 1 6q0 11 -7 23t-16 14q-9 3 -17 18.5t-8 28.5q0 11 7 11q8 0 8 8q0 7 14 9z" />
    <glyph glyph-name="p" unicode="p" horiz-adv-x="295" 
d="M168 276q-1 9 -8 13q-9 3 -6 -10q1 -2 2 -6q4 -9 8.5 -8t3.5 11zM121 381q33 9 40 9q9 0 28 -6q47 -13 68 -45q14 -20 14 -43v-11q-1 -52 -44 -136l-19 -35l16 -35q35 -82 35 -120q0 -19 -7 -32q-9 -18 -27 -18q-11 0 -18 1q-16 2 -23 6t-16 17q-15 21 -15 35
q0 16 -10 43q-10 26 -18 57q-8 29 -12 33t-22 59t-18 61q0 7 -12.5 29.5t-21.5 31.5q-15 15 -15 32q0 12 7 25q8 15 19.5 21t70.5 21z" />
    <glyph glyph-name="q" unicode="q" horiz-adv-x="274" 
d="M127 241q2 -2 7 1t7.5 7.5t-0.5 7.5q-4 3 -11 -4.5t-3 -11.5zM124 336q4 1 9.5 1.5t9 1.5t4.5 1h1q7 0 24.5 -12.5t17.5 -17.5t7 -5q5 0 13 -8q7 -7 16 -7t18 -13q7 -10 7 -37q0 -6 -2 -50q-6 -114 -11 -175q-5 -68 -5 -111q0 -26 1 -34q2 -28 2 -30q0 -14 -13 -24
q-16 -11 -30 -11q-32 0 -46 33q-7 15 -7 41q0 16 4 19q7 5 13 96q6 78 9 98q3 25 3 40q0 14 -3 17q-5 5 -27 -2t-49 -11q-7 -1 -16 -1q-12 0 -31 18q-15 13 -18 20.5t-3 27.5q0 43 32 85t70 50z" />
    <glyph glyph-name="r" unicode="r" horiz-adv-x="331" 
d="M232 463q7 2 19 2q20 0 32.5 -13t20.5 -43q2 -10 2 -13q0 -18 -36 -18q-58 0 -88 -59q-14 -27 -14 -55q0 -3 0.5 -13.5t0.5 -17.5q1 -32 1 -72q0 -12 -11.5 -25t-21.5 -13q-12 0 -26 8q-13 6 -19.5 22t-14.5 61q-10 60 -38 124q-15 35 -15 47q0 7 3 18q9 31 30 31
q9 0 18 -6q13 -9 24 -31q11 -21 14 -21q5 0 22 22q14 16 47 38.5t50 26.5z" />
    <glyph glyph-name="s" unicode="s" horiz-adv-x="408" 
d="M323 564q2 0 5.5 0.5t5.5 0.5q38 0 47 -40q2 -10 2 -14q0 -17 -18 -24.5t-68 -14.5q-27 -4 -63 -14.5t-42 -16.5q-1 -1 -1 -2q0 -9 17 -32q45 -64 45 -126v-9q-2 -27 -10.5 -45t-31.5 -44q-29 -33 -75 -65q-26 -18 -37 -27q-16 -13 -29 -13q-14 0 -30 15q-16 14 -16 28v6
q3 36 39 57q24 14 58.5 44.5t42.5 43.5q10 18 10 25q0 9 -9.5 30.5t-16.5 28.5q-21 23 -35.5 50.5t-14.5 46.5q1 17 10.5 38t18.5 24q2 1 7.5 3t13 4.5t13.5 5.5q16 7 74 19.5t88 16.5z" />
    <glyph glyph-name="t" unicode="t" horiz-adv-x="418" 
d="M87 663q10 16 21 16q8 0 23 -10q18 -13 26.5 -40.5t20.5 -113.5q18 -119 18 -120q2 -9 46 -11q122 -9 122 -29q0 -4 10 -4q9 0 16 -9q3 -3 3 -7q0 -20 -54 -28q-35 -4 -38 -5h-6.5t-15.5 -0.5t-18 -0.5q-16 0 -22 -0.5t-13 -2.5t-8.5 -5.5t-1.5 -9.5q0 -7 7 -42
q10 -47 18 -67q11 -30 11 -45q0 -23 -23 -35q-16 -8 -21 -8q-2 0 -14 4q-16 7 -19 19q-26 78 -38 143l-6 34l-19 -3q-15 -3 -43 -7q-7 -1 -16 -1q-10 0 -20 18q-9 17 -9 25q0 6 3 17q5 20 12.5 28t24.5 8q48 0 48 17q0 11 -18 117q-18 101 -18 124q0 15 11 34z" />
    <glyph glyph-name="u" unicode="u" horiz-adv-x="396" 
d="M29 330q6 15 10 18t19 3q36 0 56 -47q10 -24 24 -24q8 0 20 6q18 9 28 23q24 32 47 32q13 0 24 -12q10 -12 23 -20q11 -7 22 -33q14 -38 45 -44q16 -4 22 -20q3 -8 3 -15q0 -27 -31 -41q-18 -9 -38 -9q-39 0 -70 30q-17 17 -37 17q-8 0 -8 -5q0 -6 -29.5 -16.5
t-51.5 -12.5q-2 0 -6.5 -0.5t-6.5 -0.5q-39 0 -61 40q-12 23 -12 67q0 43 8 64z" />
    <glyph glyph-name="v" unicode="v" horiz-adv-x="293" 
d="M230 355q0 4 12 2q11 -2 19.5 -20t8.5 -39q0 -32 -20.5 -91.5t-39.5 -81.5q-12 -15 -33 -15q-25 0 -52 20t-45 53q-12 22 -33 43q-14 14 -18 22t-5 27q-1 7 -1 17q0 13 10 30q12 18 27 18q20 0 30.5 -6.5t30.5 -31.5q36 -46 41 -46h1l1 1q1 1 28 47.5t31 46.5q7 0 7 4z
" />
    <glyph glyph-name="w" unicode="w" horiz-adv-x="478" 
d="M389 541q7 9 17 9q19 0 35 -29q12 -21 12 -43q0 -34 -48 -221q-2 -9 -31 -103q-1 -5 -10 -34q-6 -16 -14 -10q-2 2 -11 -8q-7 -7 -16 -7q-29 0 -51 59q-20 53 -22 89q0 4 -2 4q-5 0 -17 -29t-14 -48q-5 -42 -27 -42q-10 0 -13 -5t-8 -5q-9 0 -23 14q-14 12 -34 67
q-27 76 -71 184q-17 41 -17 61v9q5 42 29 42q4 0 6 -1q12 -3 23.5 -13.5t11.5 -18.5t5 -13t18 -45q21 -59 25 -66q13 -31 15 -37q4 -13 11 -6t26.5 57.5t23.5 69.5q5 27 22 27h6q13 -1 26.5 -10t13.5 -16q0 -9 7 -21q6 -11 13.5 -37.5l13.5 -46.5t9 -20t11 23q33 128 37 172
q3 39 12 48z" />
    <glyph glyph-name="x" unicode="x" horiz-adv-x="291" 
d="M173 376q32 30 42 30q12 0 23.5 -9.5t11.5 -19.5q0 -11 7 -23q9 -13 2 -27q-4 -10 -14 -23q-5 -7 -5 -9.5t6 -6.5q9 -7 16 -25q6 -12 6 -17t-9 -17q-15 -18 -30 -18q-2 0 -40 4l-47 4l-27 -17q-26 -18 -30 -23q-3 -5 -18 -13q-12 -6 -17 -6q-4 0 -14 4q-9 4 -11.5 6.5
t-2.5 10.5q0 1 0.5 5.5t0.5 7.5q4 26 16 52q14 26 14 31q0 3 -14 15q-17 14 -17 50q0 17 7 23q8 6 8 19q0 7 3 9.5t13 2.5q15 0 25 -10t14 -10q5 0 15 -12q13 -16 23 -16q14 0 43 28z" />
    <glyph glyph-name="y" unicode="y" horiz-adv-x="302" 
d="M37 360q14 17 33 17q14 0 20 -12q4 -7 21.5 -30.5t21.5 -29.5q43 -71 54 -71h1q2 2 8 38q9 56 36 56q5 0 8 -1q17 -3 28 -19q11 -15 11 -64q0 -46 -7 -60q-37 -71 -47 -83q-18 -20 -53 -71t-47 -74q-16 -35 -28 -35q-15 0 -24.5 17.5t-9.5 44.5q0 51 57 140q14 22 14 31
q0 10 -15 23q-11 10 -37.5 46t-33.5 43q-9 10 -16.5 33t-7.5 39q0 5 13 22z" />
    <glyph glyph-name="z" unicode="z" horiz-adv-x="290" 
d="M39 429l11 18l30 -3q26 -3 59 -3q20 0 28 -3t24 -18q33 -30 33 -53q0 -8 -1 -13q-4 -22 -36 -59q-33 -39 -33 -47q0 -7 28 -11t31 -8q1 -4 23 -10q30 -8 30 -38q0 -1 -0.5 -4t-0.5 -5q-2 -10 -6.5 -14.5t-20.5 -10.5q-32 -13 -59 -13q-19 0 -40 4q-38 6 -55 22
q-29 28 -29 62q0 10 1 16q4 34 17 57q14 25 14 32q0 8 -15 8q-17 0 -32.5 17.5t-15.5 36.5q0 1 0.5 3.5t0.5 3.5q3 14 14 33z" />
    <glyph glyph-name="nbsp" unicode="&#xa0;" 
 />
  </font>
</defs>
</svg>
